<?xml version="1.0" encoding="UTF-8"?>
<!DOCTYPE svg PUBLIC "-//W3C//DTD SVG 1.0//EN" "http://www.w3.org/TR/2001/REC-SVG-20010904/DTD/svg10.dtd">
<!-- Creator: CorelDRAW 2020 (64-Bit) -->
<svg xmlns="http://www.w3.org/2000/svg" xml:space="preserve" width="15.0077mm" height="15.0079mm" version="1.0" style="shape-rendering:geometricPrecision; text-rendering:geometricPrecision; image-rendering:optimizeQuality; fill-rule:evenodd; clip-rule:evenodd"
viewBox="0 0 294.54 294.55"
 xmlns:xlink="http://www.w3.org/1999/xlink"
 xmlns:xodm="http://www.corel.com/coreldraw/odm/2003">
 <defs>
  <style type="text/css">
   <![CDATA[
    .fil3 {fill:#FEFEFE}
    .fil0 {fill:#EFEFF0;fill-rule:nonzero}
    .fil1 {fill:url(#id0)}
    .fil2 {fill:url(#id1)}
   ]]>
  </style>
  <radialGradient id="id0" gradientUnits="userSpaceOnUse" gradientTransform="matrix(-1.278 1.89073 1.89074 1.278 412 -449)" cx="228.84" cy="57.55" r="416.79" fx="228.84" fy="57.55">
   <stop offset="0" style="stop-opacity:1; stop-color:#E43024"/>
   <stop offset="0.839216" style="stop-opacity:1; stop-color:#A42826"/>
   <stop offset="1" style="stop-opacity:1; stop-color:#A42826"/>
  </radialGradient>
  <radialGradient id="id1" gradientUnits="userSpaceOnUse" gradientTransform="matrix(-0.952879 1.40974 1.40973 0.95288 368 -320)" cx="229.1" cy="56.19" r="558.99" fx="229.1" fy="56.19">
   <stop offset="0" style="stop-opacity:1; stop-color:#E6382B"/>
   <stop offset="0.839216" style="stop-opacity:1; stop-color:#AF352D"/>
   <stop offset="1" style="stop-opacity:1; stop-color:#AF352D"/>
  </radialGradient>
 </defs>
 <g id="Layer_x0020_1">
  <metadata id="CorelCorpID_0Corel-Layer"/>
  <g id="_2509166167552">
   <path class="fil0" d="M294.54 147.27c0,81.34 -65.94,147.27 -147.27,147.27 -81.34,0 -147.27,-65.94 -147.27,-147.27 0,-81.34 65.94,-147.27 147.27,-147.27 81.33,0 147.27,65.94 147.27,147.27z"/>
   <path class="fil1" d="M147.27 283.22c-75.08,0 -135.94,-60.87 -135.94,-135.94 0,-19.91 4.27,-38.81 11.96,-55.83 21.3,-47.22 68.81,-80.11 123.98,-80.11 55.17,0 102.69,32.89 123.98,80.11 7.69,17.02 11.96,35.93 11.96,55.83 0,75.08 -60.87,135.94 -135.94,135.94zm0 -271.89c-55.17,0 -102.69,32.89 -123.98,80.11 21.3,47.22 68.81,80.11 123.98,80.11 55.17,0 102.69,-32.89 123.98,-80.11 -21.3,-47.22 -68.81,-80.11 -123.98,-80.11z"/>
   <path class="fil2" d="M147.27 171.55c-55.17,0 -102.69,-32.89 -123.98,-80.11 21.3,-47.22 68.81,-80.11 123.98,-80.11 55.17,0 102.69,32.89 123.98,80.11 -21.3,47.22 -68.81,80.11 -123.98,80.11z"/>
   <g>
    <path class="fil3" d="M154.48 184.99c-5.01,-5.19 -12.15,-7.84 -22.88,-20.59 -7.91,-9.42 -13.1,-19.58 -17.9,-32.08 19,-14.89 20.96,-13.52 5.32,-33.39 -4.35,-5.54 -9.09,-13.94 -14.91,-14.7 -10.37,-1.35 -49.3,28.65 5.96,96.29 14.5,17.75 44.92,45.27 69.28,40.12 7.28,-1.54 17.81,-7.6 19.7,-12.65 2.49,-6.65 -5.05,-13.64 -9.18,-18.86 -3.72,-4.72 -9.87,-14.57 -14.47,-15.56 -7.18,-1.51 -15.06,7.84 -20.92,11.42l-0.01 0.01z"/>
    <path class="fil3" d="M146.47 87.73l1.55 0.59c14.97,4.86 25.29,5.99 39.66,22.66 16.14,18.72 15.54,32.96 16.01,52.13l8.68 0.53c4.43,-18.13 -5.65,-44.61 -18.06,-58.94 -5.76,-6.65 -15.51,-14.44 -21.11,-16.98 -7.56,-3.41 -15.79,-7.68 -25.07,-8.2l-1.69 8.2 0.02 0.01z"/>
    <path class="fil3" d="M146 104.81c10.81,4.12 18.73,4.04 30.16,18.15 4.31,5.32 7.68,11.83 9.53,18.98 2.3,8.83 0.6,13.61 1.6,20.38l9.01 0.38c-1.1,-15.67 1.01,-29.45 -14.49,-47.06 -10.05,-11.41 -22.67,-17.78 -35.84,-19.76 -1.1,2.8 -0.73,5.89 0.03,8.93z"/>
    <path class="fil3" d="M146.03 122.65c14.28,2.01 24.94,17.5 24.71,36.21 3.46,1.27 4.83,1.2 8.16,1.99 6.01,-11.47 -8.26,-44.79 -32.81,-48.01l-0.06 9.81z"/>
    <path class="fil3" d="M140.84 136.03c11.16,5.64 10.27,4.53 15.38,19.36 3.24,0.41 5.13,1.36 8.32,1.16 1.51,-16.71 -10.82,-24.27 -19.33,-28.3 -1.31,2.83 -3.25,4.73 -4.35,7.76l-0.01 0.02z"/>
   </g>
  </g>
 </g>
</svg>
