<?xml version="1.0" encoding="UTF-8"?>
<!DOCTYPE svg PUBLIC "-//W3C//DTD SVG 1.0//EN" "http://www.w3.org/TR/2001/REC-SVG-20010904/DTD/svg10.dtd">
<!-- Creator: CorelDRAW 2020 (64-Bit) -->
<svg xmlns="http://www.w3.org/2000/svg" xml:space="preserve" width="15.0077mm" height="15.0079mm" version="1.0" style="shape-rendering:geometricPrecision; text-rendering:geometricPrecision; image-rendering:optimizeQuality; fill-rule:evenodd; clip-rule:evenodd"
viewBox="0 0 187.1 187.1"
 xmlns:xlink="http://www.w3.org/1999/xlink"
 xmlns:xodm="http://www.corel.com/coreldraw/odm/2003">
 <defs>
  <style type="text/css">
   <![CDATA[
    .fil3 {fill:#FEFEFE;fill-rule:nonzero}
    .fil0 {fill:#EFEFF0;fill-rule:nonzero}
    .fil2 {fill:url(#id0)}
    .fil1 {fill:url(#id1)}
   ]]>
  </style>
  <radialGradient id="id0" gradientUnits="userSpaceOnUse" gradientTransform="matrix(-0.952885 1.40974 1.40974 0.952879 234 -203)" cx="145.53" cy="35.69" r="355.08" fx="145.53" fy="35.69">
   <stop offset="0" style="stop-opacity:1; stop-color:#6AB866"/>
   <stop offset="0.0705882" style="stop-opacity:1; stop-color:#6AB866"/>
   <stop offset="0.901961" style="stop-opacity:1; stop-color:#3E9350"/>
   <stop offset="1" style="stop-opacity:1; stop-color:#3E9350"/>
  </radialGradient>
  <radialGradient id="id1" gradientUnits="userSpaceOnUse" gradientTransform="matrix(-1.278 1.89073 1.89073 1.278 262 -285)" cx="145.36" cy="36.56" r="264.75" fx="145.36" fy="36.56">
   <stop offset="0" style="stop-opacity:1; stop-color:#51B052"/>
   <stop offset="0.0705882" style="stop-opacity:1; stop-color:#51B052"/>
   <stop offset="0.901961" style="stop-opacity:1; stop-color:#21833E"/>
   <stop offset="1" style="stop-opacity:1; stop-color:#21833E"/>
  </radialGradient>
 </defs>
 <g id="Layer_x0020_1">
  <metadata id="CorelCorpID_0Corel-Layer"/>
  <g id="_2509045716624">
   <path class="fil0" d="M187.1 93.55c0,51.67 -41.88,93.55 -93.55,93.55 -51.67,0 -93.55,-41.88 -93.55,-93.55 0,-51.67 41.88,-93.55 93.55,-93.55 51.66,0 93.55,41.88 93.55,93.55z"/>
   <path class="fil1" d="M93.55 179.9c-47.69,0 -86.35,-38.66 -86.35,-86.35 0,-12.65 2.71,-24.65 7.6,-35.47 13.53,-30 43.71,-50.89 78.76,-50.89 35.04,0 65.23,20.89 78.75,50.89 4.88,10.81 7.6,22.82 7.6,35.47 0,47.69 -38.66,86.35 -86.35,86.35zm0 -172.71c-35.05,0 -65.23,20.89 -78.76,50.89 13.53,29.99 43.71,50.89 78.76,50.89 35.04,0 65.23,-20.89 78.75,-50.89 -13.53,-30 -43.71,-50.89 -78.75,-50.89z"/>
   <path class="fil2" d="M93.55 108.97c-35.05,0 -65.23,-20.89 -78.76,-50.89 13.53,-30 43.71,-50.89 78.76,-50.89 35.04,0 65.23,20.89 78.75,50.89 -13.53,29.99 -43.71,50.89 -78.75,50.89z"/>
   <path class="fil3" d="M94.07 133.53c-8,0 -15.46,-2.31 -21.76,-6.29l-0.58 0.16 -15.57 4.21 4.69 -15.2c-4.76,-6.67 -7.56,-14.83 -7.56,-23.65 0,-22.52 18.25,-40.77 40.77,-40.77 22.52,0 40.77,18.26 40.77,40.77 0,22.52 -18.26,40.77 -40.77,40.77zm0 -89.5c-26.87,0 -48.73,21.86 -48.73,48.73 0,8.84 2.34,17.36 6.81,24.86l-7.86 25.45 26.89 -7.28c7.02,3.74 14.86,5.7 22.88,5.7 26.87,0 48.73,-21.86 48.73,-48.72 0,-26.87 -21.86,-48.73 -48.73,-48.73z"/>
   <path class="fil3" d="M86.03 80.76c0,0 1.44,2.2 0,3.98 -1.44,1.78 -2.62,3.13 -2.62,3.13 0,0 -1.27,0.93 0,2.79 1.27,1.86 6.52,9.9 15.57,13.46 0,0 2.79,1.19 3.98,-1.52l2.87 -3.72c0,0 0.68,-0.93 2.88,0 2.2,0.93 9.14,4.31 9.14,4.31 0,0 1.27,0.42 1.02,2.29 -0.25,1.86 -0.93,9.05 -10.92,9.82 0,0 -9.65,0.34 -20.48,-8.04 -6.77,-5.23 -11.56,-11.76 -14.2,-16.31 -0.17,-0.3 -0.34,-0.6 -0.5,-0.88 -1.38,-2.78 -2.39,-5.83 -2.25,-8.8 0,-0.34 0.01,-0.69 0.03,-1.06 0.22,-3.25 1.54,-7.12 6.43,-9.34 0,0 3.98,-0.59 4.65,0l4.4 9.9z"/>
  </g>
 </g>
</svg>
